REM DIRINDEX 1\2\3,1\2\4,1\2\5,1\2\6
REM DIRNAME cjc157,folder01,folder02,folder03,folder04,folder05
TITLE ""
FILE "108 108.mp3" MP3
  TRACK 01 AUDIO
    TITLE "0:"
    INDEX 01 00:00:00
  TRACK 02 AUDIO
    TITLE "3:cjc157_3992"
    INDEX 01 00:00:09
  TRACK 03 AUDIO
    TITLE "0:"
    INDEX 01 00:01:48
  TRACK 04 AUDIO
    TITLE "4:cjc157_3993"
    INDEX 01 00:02:16
  TRACK 05 AUDIO
    TITLE "0:"
    INDEX 01 00:03:27
  TRACK 06 AUDIO
    TITLE "5:cjc157_3994"
    INDEX 01 00:03:72
  TRACK 07 AUDIO
    TITLE "0:"
    INDEX 01 00:06:12
  TRACK 08 AUDIO
    TITLE "5:cjc157_3995"
    INDEX 01 00:06:67
  TRACK 09 AUDIO
    TITLE "0:"
    INDEX 01 00:09:44
  TRACK 10 AUDIO
    TITLE "5:cjc157_3996"
    INDEX 01 00:10:18
  TRACK 11 AUDIO
    TITLE "0:"
    INDEX 01 00:12:01
  TRACK 12 AUDIO
    TITLE "3:cjc157_3997"
    INDEX 01 00:12:46
  TRACK 13 AUDIO
    TITLE "0:"
    INDEX 01 00:13:59
  TRACK 14 AUDIO
    TITLE "4:cjc157_3998"
    INDEX 01 00:14:35
  TRACK 15 AUDIO
    TITLE "0:"
    INDEX 01 00:15:44
  TRACK 16 AUDIO
    TITLE "5:cjc157_3999"
    INDEX 01 00:16:10
  TRACK 17 AUDIO
    TITLE "0:"
    INDEX 01 00:19:09
  TRACK 18 AUDIO
    TITLE "5:cjc157_4000"
    INDEX 01 00:19:54
  TRACK 19 AUDIO
    TITLE "0:"
    INDEX 01 00:22:01
  TRACK 20 AUDIO
    TITLE "5:cjc157_4001"
    INDEX 01 00:22:46
  TRACK 21 AUDIO
    TITLE "0:"
    INDEX 01 00:25:46
  TRACK 22 AUDIO
    TITLE "3:cjc157_4002"
    INDEX 01 00:26:17
  TRACK 23 AUDIO
    TITLE "0:"
    INDEX 01 00:27:32
  TRACK 24 AUDIO
    TITLE "4:cjc157_4003"
    INDEX 01 00:27:73
  TRACK 25 AUDIO
    TITLE "0:"
    INDEX 01 00:28:74
  TRACK 26 AUDIO
    TITLE "5:cjc157_4004"
    INDEX 01 00:29:44
  TRACK 27 AUDIO
    TITLE "0:"
    INDEX 01 00:31:12
  TRACK 28 AUDIO
    TITLE "5:cjc157_4005"
    INDEX 01 00:31:61
  TRACK 29 AUDIO
    TITLE "0:"
    INDEX 01 00:33:40
  TRACK 30 AUDIO
    TITLE "3:cjc157_4006"
    INDEX 01 00:34:08
  TRACK 31 AUDIO
    TITLE "0:"
    INDEX 01 00:35:41
  TRACK 32 AUDIO
    TITLE "4:cjc157_4007"
    INDEX 01 00:36:09
  TRACK 33 AUDIO
    TITLE "0:"
    INDEX 01 00:37:10
  TRACK 34 AUDIO
    TITLE "5:cjc157_4008"
    INDEX 01 00:37:61
  TRACK 35 AUDIO
    TITLE "0:"
    INDEX 01 00:40:07
  TRACK 36 AUDIO
    TITLE "5:cjc157_4009"
    INDEX 01 00:40:52
  TRACK 37 AUDIO
    TITLE "0:"
    INDEX 01 00:42:21
  TRACK 38 AUDIO
    TITLE "5:cjc157_4010"
    INDEX 01 00:42:66
  TRACK 39 AUDIO
    TITLE "0:"
    INDEX 01 00:44:36
  TRACK 40 AUDIO
    TITLE "3:cjc157_4011"
    INDEX 01 00:45:06
  TRACK 41 AUDIO
    TITLE "0:"
    INDEX 01 00:46:09
  TRACK 42 AUDIO
    TITLE "4:cjc157_4012"
    INDEX 01 00:46:56
  TRACK 43 AUDIO
    TITLE "0:"
    INDEX 01 00:47:58
  TRACK 44 AUDIO
    TITLE "5:cjc157_4013"
    INDEX 01 00:48:30
  TRACK 45 AUDIO
    TITLE "0:"
    INDEX 01 00:50:15
  TRACK 46 AUDIO
    TITLE "5:cjc157_4014"
    INDEX 01 00:50:60
  TRACK 47 AUDIO
    TITLE "0:"
    INDEX 01 00:52:36
  TRACK 48 AUDIO
    TITLE "5:cjc157_4015"
    INDEX 01 00:53:08
  TRACK 49 AUDIO
    TITLE "0:"
    INDEX 01 00:54:40
  TRACK 50 AUDIO
    TITLE "3:cjc157_4016"
    INDEX 01 00:55:10
  TRACK 51 AUDIO
    TITLE "0:"
    INDEX 01 00:56:16
  TRACK 52 AUDIO
    TITLE "4:cjc157_4017"
    INDEX 01 00:56:61
  TRACK 53 AUDIO
    TITLE "0:"
    INDEX 01 00:57:62
  TRACK 54 AUDIO
    TITLE "5:cjc157_4018"
    INDEX 01 00:58:30
  TRACK 55 AUDIO
    TITLE "0:"
    INDEX 01 01:00:06
  TRACK 56 AUDIO
    TITLE "5:cjc157_4019"
    INDEX 01 01:00:53
  TRACK 57 AUDIO
    TITLE "0:"
    INDEX 01 01:02:65
  TRACK 58 AUDIO
    TITLE "3:cjc157_4020"
    INDEX 01 01:03:37
  TRACK 59 AUDIO
    TITLE "0:"
    INDEX 01 01:04:54
  TRACK 60 AUDIO
    TITLE "4:cjc157_4021"
    INDEX 01 01:05:26
  TRACK 61 AUDIO
    TITLE "0:"
    INDEX 01 01:06:28
  TRACK 62 AUDIO
    TITLE "5:cjc157_4022"
    INDEX 01 01:06:71
  TRACK 63 AUDIO
    TITLE "0:"
    INDEX 01 01:08:50
  TRACK 64 AUDIO
    TITLE "5:cjc157_4023"
    INDEX 01 01:09:20
  TRACK 65 AUDIO
    TITLE "0:"
    INDEX 01 01:11:09
  TRACK 66 AUDIO
    TITLE "3:cjc157_4024"
    INDEX 01 01:11:54
  TRACK 67 AUDIO
    TITLE "0:"
    INDEX 01 01:12:58
  TRACK 68 AUDIO
    TITLE "4:cjc157_4025"
    INDEX 01 01:13:30
  TRACK 69 AUDIO
    TITLE "0:"
    INDEX 01 01:14:41
  TRACK 70 AUDIO
    TITLE "5:cjc157_4026"
    INDEX 01 01:15:11
  TRACK 71 AUDIO
    TITLE "0:"
    INDEX 01 01:16:63
  TRACK 72 AUDIO
    TITLE "5:cjc157_4027"
    INDEX 01 01:17:35
  TRACK 73 AUDIO
    TITLE "0:"
    INDEX 01 01:20:28
  TRACK 74 AUDIO
    TITLE "5:cjc157_4028"
    INDEX 01 01:21:00
  TRACK 75 AUDIO
    TITLE "0:"
    INDEX 01 01:23:32
  TRACK 76 AUDIO
    TITLE "3:cjc157_4029"
    INDEX 01 01:24:00
  TRACK 77 AUDIO
    TITLE "0:"
    INDEX 01 01:25:09
  TRACK 78 AUDIO
    TITLE "4:cjc157_4030"
    INDEX 01 01:25:57
  TRACK 79 AUDIO
    TITLE "0:"
    INDEX 01 01:26:66
  TRACK 80 AUDIO
    TITLE "5:cjc157_4031"
    INDEX 01 01:27:32
  TRACK 81 AUDIO
    TITLE "0:"
    INDEX 01 01:28:65
  TRACK 82 AUDIO
    TITLE "5:cjc157_4032"
    INDEX 01 01:29:46
  TRACK 83 AUDIO
    TITLE "0:"
    INDEX 01 01:31:49
  TRACK 84 AUDIO
    TITLE "3:cjc157_4033"
    INDEX 01 01:32:19
  TRACK 85 AUDIO
    TITLE "0:"
    INDEX 01 01:33:21
  TRACK 86 AUDIO
    TITLE "4:cjc157_4034"
    INDEX 01 01:33:68
  TRACK 87 AUDIO
    TITLE "0:"
    INDEX 01 01:34:65
  TRACK 88 AUDIO
    TITLE "5:cjc157_4035"
    INDEX 01 01:35:43
  TRACK 89 AUDIO
    TITLE "0:"
    INDEX 01 01:37:13
  TRACK 90 AUDIO
    TITLE "5:cjc157_4036"
    INDEX 01 01:37:60
  TRACK 91 AUDIO
    TITLE "0:"
    INDEX 01 01:39:47
